<?xml version="1.0" encoding="UTF-8" standalone="no"?>
<svg xmlns:ffdec="https://www.free-decompiler.com/flash" xmlns:xlink="http://www.w3.org/1999/xlink" ffdec:objectType="frame" height="47.25px" width="100.55px" xmlns="http://www.w3.org/2000/svg">
  <g transform="matrix(1.0, 0.0, 0.0, 1.0, -74.7, -43.05)">
    <use ffdec:characterId="109" height="17.25" transform="matrix(1.0007, 0.0, 0.0, 1.0, 125.0, 73.0)" width="35.5" xlink:href="#shape0"/>
    <use ffdec:characterId="109" height="17.25" transform="matrix(-1.0007, 0.0, 0.0, 1.0, 125.0, 73.0)" width="35.5" xlink:href="#shape0"/>
    <use ffdec:characterId="76" height="5.5" transform="matrix(1.0007, 0.0, 0.0, 1.0, 141.0, 53.3)" width="24.2" xlink:href="#shape1"/>
    <use ffdec:characterId="76" height="5.5" transform="matrix(-1.0007, 0.0, 0.0, 1.0, 109.0, 53.3)" width="24.2" xlink:href="#shape1"/>
  </g>
  <defs>
    <g id="shape0">
      <path d="M42.7 4.8 Q40.2 6.85 35.1 8.1 29.5 9.5 22.7 7.95 16.7 6.55 12.5 3.7 L31.55 2.6 Q41.1 1.05 48.0 -2.95 45.55 2.5 42.7 4.8" fill="#000000" fill-rule="evenodd" stroke="none"/>
      <path d="M28.85 -7.85 Q35.4 -8.5 40.4 -5.85 45.3 -3.25 45.8 1.2 L14.25 4.55 Q13.75 0.1 18.05 -3.5 22.3 -7.15 28.85 -7.85" fill="url(#gradient0)" fill-rule="evenodd" stroke="none"/>
      <path d="M28.85 -7.85 Q35.4 -8.5 40.4 -5.85 45.3 -3.25 45.8 1.2 L14.25 4.55 Q13.75 0.1 18.05 -3.5 22.3 -7.15 28.85 -7.85 Z" fill="none" stroke="url(#gradient1)" stroke-linecap="butt" stroke-linejoin="round" stroke-width="1.0"/>
    </g>
    <radialGradient cx="0" cy="0" gradientTransform="matrix(0.0309, -0.0046, 0.0018, 0.0117, 28.55, -6.55)" gradientUnits="userSpaceOnUse" id="gradient0" r="819.2" spreadMethod="pad">
      <stop offset="0.47058823529411764" stop-color="#000000" stop-opacity="0.0"/>
      <stop offset="1.0" stop-color="#000000" stop-opacity="0.47058824"/>
    </radialGradient>
    <linearGradient gradientTransform="matrix(1.0157, -0.1077, 0.1019, 0.9615, -0.95, 1.0)" gradientUnits="userSpaceOnUse" id="gradient1" spreadMethod="pad" x1="-819.2" x2="819.2">
      <stop offset="0.39215686274509803" stop-color="#000000" stop-opacity="0.17254902"/>
      <stop offset="1.0" stop-color="#000000" stop-opacity="0.47058824"/>
    </linearGradient>
    <g id="shape1">
      <path d="M0.0 3.5 L1.55 2.45 Q3.6 1.25 6.0 0.6 13.7 -1.4 22.2 3.1" fill="none" stroke="#000000" stroke-linecap="round" stroke-linejoin="round" stroke-width="2.0"/>
    </g>
  </defs>
</svg>
