<?xml version="1.0" encoding="UTF-8" standalone="no"?>
<svg xmlns:ffdec="https://www.free-decompiler.com/flash" xmlns:xlink="http://www.w3.org/1999/xlink" ffdec:objectType="frame" height="86.75px" width="299.5px" xmlns="http://www.w3.org/2000/svg">
  <g transform="matrix(1.0, 0.0, 0.0, 1.0, -0.5, -1.0)">
    <use ffdec:characterId="498" height="86.75" transform="matrix(1.0, 0.0, 0.0, 1.0, 0.0, 0.0)" width="299.5" xlink:href="#shape0"/>
  </g>
  <defs>
    <g id="shape0">
      <path d="M299.0 54.5 L299.0 55.0 128.0 55.0 128.0 1.0 299.0 1.0 299.0 54.5 128.5 54.5 299.0 54.5" fill="#ffffff" fill-rule="evenodd" stroke="none"/>
      <path d="M299.0 54.5 L299.5 54.5" fill="none" stroke="#000000" stroke-linecap="round" stroke-linejoin="round" stroke-opacity="0.5019608" stroke-width="1.0"/>
      <path d="M128.5 54.5 L299.0 54.5" fill="none" stroke="#c8c8c8" stroke-linecap="round" stroke-linejoin="round" stroke-width="1.0"/>
      <path d="M127.1 72.5 L127.45 72.5 127.45 87.75 1.35 87.75 1.35 72.65 9.25 72.6 1.35 72.65 1.35 72.5 9.25 72.6 127.1 72.5" fill="#ffffff" fill-rule="evenodd" stroke="none"/>
      <path d="M1.35 72.65 L1.0 72.65 M9.25 72.6 L1.35 72.65 M9.25 72.6 L127.1 72.5" fill="none" stroke="#c8c8c8" stroke-linecap="round" stroke-linejoin="round" stroke-width="1.0"/>
    </g>
  </defs>
</svg>
