<?xml version="1.0" encoding="UTF-8" standalone="no"?>
<svg xmlns:ffdec="https://www.free-decompiler.com/flash" xmlns:xlink="http://www.w3.org/1999/xlink" ffdec:objectType="frame" height="73.95px" width="130.6px" xmlns="http://www.w3.org/2000/svg">
  <g transform="matrix(1.0, 0.0, 0.0, 1.0, 1.3, -5.4)">
    <use ffdec:characterId="422" height="73.95" transform="matrix(1.0, 0.0, 0.0, 1.0, 0.0, 0.0)" width="130.6" xlink:href="#shape0"/>
  </g>
  <defs>
    <g id="shape0">
      <path d="M129.3 71.65 L-1.3 71.65 -1.3 79.35 129.3 79.35 129.3 71.65" fill="url(#gradient0)" fill-rule="evenodd" stroke="none"/>
      <path d="M82.1 22.6 L49.1 62.5 47.65 72.95 80.65 33.05 82.1 22.6" fill="url(#gradient1)" fill-rule="evenodd" stroke="none"/>
      <path d="M17.6 12.9 L17.6 65.0 9.15 65.0 9.15 12.9 17.6 12.9" fill="url(#gradient2)" fill-rule="evenodd" stroke="none"/>
      <path d="M76.5 63.0 L42.5 22.2 42.75 31.1 76.75 71.9 76.5 63.0" fill="url(#gradient3)" fill-rule="evenodd" stroke="none"/>
      <path d="M112.5 65.85 L112.5 13.75 120.95 13.75 120.95 65.85 112.5 65.85" fill="url(#gradient4)" fill-rule="evenodd" stroke="none"/>
      <path d="M82.45 65.7 L75.65 65.7 42.6 25.3 49.4 25.3 82.45 65.7" fill="#ffffff" fill-rule="evenodd" stroke="none"/>
      <path d="M82.45 65.7 L75.65 65.7 42.6 25.3 49.4 25.3 82.45 65.7 Z" fill="none" stroke="#c8c8c8" stroke-linecap="round" stroke-linejoin="round" stroke-width="1.0"/>
      <path d="M112.5 66.1 L105.7 66.1 105.7 6.05 112.5 6.05 112.5 66.1" fill="#ffffff" fill-rule="evenodd" stroke="none"/>
      <path d="M112.5 66.1 L105.7 66.1 105.7 6.05 112.5 6.05 112.5 66.1 Z" fill="none" stroke="#c8c8c8" stroke-linecap="round" stroke-linejoin="round" stroke-width="1.0"/>
      <path d="M22.3 65.95 L15.5 65.95 15.5 5.9 22.3 5.9 22.3 65.95" fill="#ffffff" fill-rule="evenodd" stroke="none"/>
      <path d="M22.3 65.95 L15.5 65.95 15.5 5.9 22.3 5.9 22.3 65.95 Z" fill="none" stroke="#c8c8c8" stroke-linecap="round" stroke-linejoin="round" stroke-width="1.0"/>
      <path d="M49.2 65.65 L42.4 65.65 75.4 25.35 82.2 25.35 49.2 65.65" fill="#ffffff" fill-rule="evenodd" stroke="none"/>
      <path d="M49.2 65.65 L42.4 65.65 75.4 25.35 82.2 25.35 49.2 65.65 Z" fill="none" stroke="#c8c8c8" stroke-linecap="round" stroke-linejoin="round" stroke-width="1.0"/>
      <path d="M128.5 73.05 L-0.55 73.05 -0.55 65.4 128.5 65.4 128.5 73.05" fill="#ffffff" fill-rule="evenodd" stroke="none"/>
      <path d="M128.5 73.05 L-0.55 73.05 -0.55 65.4 128.5 65.4 128.5 73.05 Z" fill="none" stroke="#c8c8c8" stroke-linecap="round" stroke-linejoin="round" stroke-width="1.0"/>
    </g>
    <linearGradient gradientTransform="matrix(0.0, 0.0047, 0.0053, 0.0, 64.0, 75.5)" gradientUnits="userSpaceOnUse" id="gradient0" spreadMethod="pad" x1="-819.2" x2="819.2">
      <stop offset="0.0" stop-color="#000000" stop-opacity="0.2509804"/>
      <stop offset="1.0" stop-color="#000000" stop-opacity="0.0"/>
    </linearGradient>
    <linearGradient gradientTransform="matrix(-9.0E-4, 0.0064, 0.0013, -0.0016, 64.85, 47.8)" gradientUnits="userSpaceOnUse" id="gradient1" spreadMethod="pad" x1="-819.2" x2="819.2">
      <stop offset="0.0" stop-color="#000000" stop-opacity="0.2509804"/>
      <stop offset="1.0" stop-color="#000000" stop-opacity="0.0"/>
    </linearGradient>
    <linearGradient gradientTransform="matrix(-0.0052, 0.0, 0.0, -0.0021, 13.4, 38.95)" gradientUnits="userSpaceOnUse" id="gradient2" spreadMethod="pad" x1="-819.2" x2="819.2">
      <stop offset="0.0" stop-color="#000000" stop-opacity="0.2509804"/>
      <stop offset="1.0" stop-color="#000000" stop-opacity="0.0"/>
    </linearGradient>
    <linearGradient gradientTransform="matrix(1.0E-4, 0.0055, 0.0014, 0.0016, 59.65, 47.05)" gradientUnits="userSpaceOnUse" id="gradient3" spreadMethod="pad" x1="-819.2" x2="819.2">
      <stop offset="0.0" stop-color="#000000" stop-opacity="0.2509804"/>
      <stop offset="1.0" stop-color="#000000" stop-opacity="0.0"/>
    </linearGradient>
    <linearGradient gradientTransform="matrix(0.0052, 0.0, 0.0, 0.0021, 116.7, 39.8)" gradientUnits="userSpaceOnUse" id="gradient4" spreadMethod="pad" x1="-819.2" x2="819.2">
      <stop offset="0.0" stop-color="#000000" stop-opacity="0.2509804"/>
      <stop offset="1.0" stop-color="#000000" stop-opacity="0.0"/>
    </linearGradient>
  </defs>
</svg>
