<?xml version="1.0" encoding="UTF-8" standalone="no"?>
<svg xmlns:ffdec="https://www.free-decompiler.com/flash" xmlns:xlink="http://www.w3.org/1999/xlink" ffdec:objectType="frame" height="47.25px" width="100.45px" xmlns="http://www.w3.org/2000/svg">
  <g transform="matrix(1.0, 0.0, 0.0, 1.0, -74.75, -43.05)">
    <use ffdec:characterId="70" height="16.0" transform="matrix(1.0007, 0.0, 0.0, 1.0, 142.15, 66.95)" width="21.3" xlink:href="#shape0"/>
    <use ffdec:characterId="71" height="3.05" transform="matrix(1.0007, 0.0, 0.0, 1.0, 125.0, 73.0)" width="1.0" xlink:href="#shape1"/>
    <use ffdec:characterId="72" height="15.5" transform="matrix(1.0007, 0.0, 0.0, 1.0, 150.35, 75.9)" width="17.35" xlink:href="#shape2"/>
    <use ffdec:characterId="73" height="8.5" transform="matrix(1.0007, 0.0, 0.0, 1.0, 124.4, 68.7)" width="8.5" xlink:href="#shape3"/>
    <use ffdec:characterId="74" height="19.0" transform="matrix(1.0007, 0.0, 0.0, 1.0, 141.2, 65.3)" width="22.65" xlink:href="#shape4"/>
    <use ffdec:characterId="75" height="4.95" transform="matrix(1.0007, 0.0, 0.0, 1.0, 147.6, 72.15)" width="5.0" xlink:href="#shape5"/>
    <use ffdec:characterId="70" height="16.0" transform="matrix(-1.0007, 0.0, 0.0, 1.0, 107.85, 66.95)" width="21.3" xlink:href="#shape0"/>
    <use ffdec:characterId="71" height="3.05" transform="matrix(-1.0007, 0.0, 0.0, 1.0, 125.0, 73.0)" width="1.0" xlink:href="#shape1"/>
    <use ffdec:characterId="72" height="15.5" transform="matrix(-1.0007, 0.0, 0.0, 1.0, 99.65, 75.9)" width="17.35" xlink:href="#shape2"/>
    <use ffdec:characterId="73" height="8.5" transform="matrix(-1.0007, 0.0, 0.0, 1.0, 125.6, 68.7)" width="8.5" xlink:href="#shape3"/>
    <use ffdec:characterId="74" height="19.0" transform="matrix(-1.0007, 0.0, 0.0, 1.0, 108.8, 65.3)" width="22.65" xlink:href="#shape4"/>
    <use ffdec:characterId="75" height="4.95" transform="matrix(-1.0007, 0.0, 0.0, 1.0, 102.4, 72.15)" width="5.0" xlink:href="#shape5"/>
    <use ffdec:characterId="76" height="5.5" transform="matrix(1.0007, 0.0, 0.0, 1.0, 141.0, 53.3)" width="24.2" xlink:href="#shape6"/>
    <use ffdec:characterId="76" height="5.5" transform="matrix(-1.0007, 0.0, 0.0, 1.0, 109.0, 53.3)" width="24.2" xlink:href="#shape6"/>
  </g>
  <defs>
    <g id="shape0">
      <path d="M21.3 8.0 Q21.3 11.3 18.15 13.65 15.05 16.0 10.65 16.0 6.25 16.0 3.1 13.65 0.0 11.3 0.0 8.0 0.0 4.7 3.1 2.35 6.25 0.0 10.65 0.0 15.05 0.0 18.15 2.35 21.3 4.7 21.3 8.0" fill="url(#gradient0)" fill-rule="evenodd" stroke="none"/>
    </g>
    <radialGradient cx="0" cy="0" gradientTransform="matrix(0.0212, 0.0, 0.0, 0.0144, 10.65, 11.35)" gradientUnits="userSpaceOnUse" id="gradient0" r="819.2" spreadMethod="pad">
      <stop offset="0.6901960784313725" stop-color="#00ff00"/>
      <stop offset="0.7098039215686275" stop-color="#008000"/>
    </radialGradient>
    <g id="shape1">
      <path d="M17.2 2.7 L17.2 2.75 17.2 3.15 17.2 3.25 17.15 2.4 Q17.15 1.25 17.6 0.2 17.2 1.25 17.2 2.45 L17.2 2.6 17.2 2.7" fill="#ffffff" fill-opacity="0.3529412" fill-rule="evenodd" stroke="none"/>
      <path d="M17.2 2.7 L17.2 2.75" fill="none" stroke="#000000" stroke-linecap="round" stroke-linejoin="round" stroke-width="1.0"/>
    </g>
    <g id="shape2">
      <path d="M8.2 -0.45 L8.2 -0.3 8.2 -0.2 8.2 0.1 Q8.15 3.1 5.8 5.25 L4.8 6.1 3.45 6.9 3.35 6.9 2.55 7.15 1.25 7.4 0.05 7.5 Q-3.35 7.5 -5.75 5.25 -7.5 3.75 -7.95 1.65 L-8.1 0.55 -8.15 0.25 -8.15 -0.2 -8.15 -0.3 -8.15 -0.45 -7.75 -2.35 Q-7.2 -3.95 -5.75 -5.35 -3.35 -7.5 0.05 -7.5 L0.45 -7.5 Q3.55 -7.4 5.8 -5.35 8.05 -3.25 8.2 -0.45" fill="url(#gradient1)" fill-rule="evenodd" stroke="none"/>
      <path d="M8.15 -0.2 Q8.15 -3.2 5.75 -5.4 3.5 -7.4 0.4 -7.5 L0.0 -7.5 Q-3.4 -7.5 -5.8 -5.4 -7.25 -4.05 -7.8 -2.45 -8.2 -1.4 -8.2 -0.2" fill="none" stroke="#000000" stroke-linecap="round" stroke-linejoin="round" stroke-width="1.0"/>
    </g>
    <radialGradient cx="0" cy="0" gradientTransform="matrix(0.014, 0.0, 0.0, 0.0107, -0.2, 1.7)" gradientUnits="userSpaceOnUse" id="gradient1" r="819.2" spreadMethod="pad">
      <stop offset="0.6627450980392157" stop-color="#ff0000"/>
      <stop offset="0.7098039215686275" stop-color="#400000"/>
    </radialGradient>
    <g id="shape3">
      <path d="M25.7 1.65 Q27.45 1.65 28.7 2.9 29.95 4.15 29.95 5.9 29.95 7.65 28.7 8.9 27.45 10.15 25.7 10.15 23.95 10.15 22.7 8.9 21.45 7.65 21.45 5.9 21.45 4.15 22.7 2.9 23.95 1.65 25.7 1.65" fill="#400000" fill-rule="evenodd" stroke="none"/>
    </g>
    <g id="shape4">
      <path d="M11.95 3.1 Q7.6 3.1 4.6 5.15 3.0 6.3 2.25 7.45 1.45 8.75 1.45 10.55 1.45 12.3 2.2 13.4 2.8 14.25 4.3 15.35 7.2 17.5 11.2 17.5 14.5 17.5 19.6 14.95 18.25 16.95 14.9 18.15 11.0 19.55 7.2 18.6 3.4 17.65 1.5 15.0 0.05 12.95 0.0 10.6 0.0 7.3 2.05 4.65 4.65 1.4 9.95 0.35 14.0 -0.5 17.6 0.8 21.05 2.05 22.15 4.55 22.8 6.0 22.6 7.95 L22.3 9.55 Q22.0 7.05 19.3 5.15 16.25 3.1 11.95 3.1" fill="#000000" fill-rule="evenodd" stroke="none"/>
    </g>
    <g id="shape5">
      <path d="M4.25 0.7 Q5.0 1.45 5.0 2.5 5.0 3.5 4.25 4.25 3.55 4.95 2.5 4.95 1.45 4.95 0.75 4.25 0.0 3.5 0.0 2.5 0.0 1.45 0.75 0.7 1.45 0.0 2.5 0.0 3.55 0.0 4.25 0.7" fill="#ffffff" fill-rule="evenodd" stroke="none"/>
    </g>
    <g id="shape6">
      <path d="M0.0 3.5 L1.55 2.45 Q3.6 1.25 6.0 0.6 13.7 -1.4 22.2 3.1" fill="none" stroke="#000000" stroke-linecap="round" stroke-linejoin="round" stroke-width="2.0"/>
    </g>
  </defs>
</svg>
