<?xml version="1.0" encoding="UTF-8" standalone="no"?>
<svg xmlns:ffdec="https://www.free-decompiler.com/flash" xmlns:xlink="http://www.w3.org/1999/xlink" ffdec:objectType="frame" height="162.9px" width="155.65px" xmlns="http://www.w3.org/2000/svg">
  <g transform="matrix(1.0, 0.0, 0.0, 1.0, 11.65, -6.25)">
    <use ffdec:characterId="311" height="160.75" transform="matrix(1.0, 0.0, 0.0, 1.0, 1.0, 6.25)" width="143.0" xlink:href="#shape0"/>
    <use ffdec:characterId="313" ffdec:characterName="Shrt_Blank" height="160.75" transform="matrix(1.0, 0.0, 0.0, 1.0003, 0.0, 0.0)" width="155.65" xlink:href="#sprite0"/>
    <use ffdec:characterId="416" height="161.95" transform="matrix(1.0, 0.0, 0.0, 1.0, 0.0, 0.0)" width="132.65" xlink:href="#shape1"/>
  </g>
  <defs>
    <g id="shape0">
      <path d="M98.75 0.0 L125.75 0.0 125.75 79.75 143.0 79.75 143.0 160.75 0.0 160.75 0.0 0.0 26.0 0.0 26.0 19.25 98.75 19.25 98.75 0.0" fill="#ffffff" fill-opacity="0.011764706" fill-rule="evenodd" stroke="none"/>
    </g>
    <g id="sprite0">
      <use ffdec:characterId="311" height="160.75" transform="matrix(1.0, 0.0, 0.0, 1.0, 1.0, 6.25)" width="143.0" xlink:href="#shape0"/>
      <use ffdec:characterId="312" height="14.75" transform="matrix(0.0, -1.0, 1.0, 0.0, -9.65, 133.35)" width="109.6" xlink:href="#text0"/>
    </g>
    <g id="shape1">
      <path d="M86.0 88.55 L86.0 169.15 78.3 169.15 78.3 88.55 86.0 88.55 M59.75 87.25 L59.75 82.9 68.15 82.9 68.15 87.25 59.75 87.25 M41.25 88.55 L49.05 88.55 49.05 168.6 41.25 168.6 41.25 88.55 M58.25 88.55 L66.05 88.55 66.05 168.6 58.25 168.6 58.25 88.55 M22.8 82.9 L31.15 82.9 31.15 87.25 22.8 87.25 22.8 82.9 M40.45 87.8 L40.45 82.9 48.85 82.9 48.85 87.8 40.45 87.8 M24.1 88.55 L31.9 88.55 31.9 168.6 24.1 168.6 24.1 88.55 M6.25 87.25 L6.25 82.9 14.5 82.9 14.6 87.25 6.25 87.25 M5.35 88.55 L13.15 88.55 13.15 168.6 5.35 168.6 5.35 88.55 M130.35 88.55 L138.0 88.55 138.0 169.15 130.35 169.15 130.35 88.55 M96.75 88.55 L104.4 88.55 104.4 169.15 96.75 169.15 96.75 88.55 M112.3 82.9 L120.7 82.9 120.7 87.8 112.3 87.8 112.3 82.9 M113.6 88.55 L121.3 88.55 121.3 169.15 113.6 169.15 113.6 88.55 M94.65 87.25 L94.65 82.9 103.0 82.9 103.0 87.25 94.65 87.25 M86.35 82.9 L86.45 87.25 78.1 87.25 78.1 82.9 86.35 82.9" fill="#ffffff" fill-rule="evenodd" stroke="none"/>
      <path d="M40.45 7.2 L48.85 7.2 48.85 82.9 40.45 82.9 40.45 7.2 M6.25 7.2 L14.6 7.2 Q13.65 42.4 14.4 77.3 L14.45 81.25 14.5 82.9 6.25 82.9 6.25 7.2 M22.8 7.2 L31.15 7.2 31.15 82.9 22.8 82.9 22.8 7.2 M59.75 7.2 L68.15 7.2 68.15 82.9 59.75 82.9 59.75 7.2 M86.25 77.3 L86.3 81.25 86.35 82.9 78.1 82.9 78.1 7.2 86.45 7.2 Q85.5 42.4 86.25 77.3 M94.65 7.2 L103.0 7.2 103.0 82.9 94.65 82.9 94.65 7.2 M112.3 7.2 L120.7 7.2 120.7 82.9 112.3 82.9 112.3 7.2" fill="#ffffff" fill-rule="evenodd" stroke="none"/>
    </g>
  </defs>
</svg>
